<svg id="Logo" xmlns="http://www.w3.org/2000/svg" viewBox="0 0 60 60"><title>instagram_icon</title><path d="M30,18.02325c3.90078,0,4.36281.01488,5.90328.08516a8.08379,8.08379,0,0,1,2.71269.503A4.838,4.838,0,0,1,41.38856,21.384a8.0835,8.0835,0,0,1,.503,2.71267c.07028,1.54049.08516,2.00252.08516,5.9033s-.01488,4.36281-.08516,5.90328a8.08353,8.08353,0,0,1-.503,2.71269A4.838,4.838,0,0,1,38.616,41.38856a8.08353,8.08353,0,0,1-2.71269.503c-1.54025.07028-2.00224.08516-5.90328.08516s-4.363-.01488-5.90328-.08516a8.08353,8.08353,0,0,1-2.71269-.503A4.838,4.838,0,0,1,18.61144,38.616a8.08376,8.08376,0,0,1-.503-2.71267c-.07028-1.54049-.08516-2.00252-.08516-5.9033s.01488-4.36281.08516-5.90328a8.08379,8.08379,0,0,1,.503-2.71269A4.838,4.838,0,0,1,21.384,18.61144a8.08376,8.08376,0,0,1,2.71267-.503c1.54049-.07028,2.00252-.08516,5.9033-.08516M30,15.391c-3.96757,0-4.46507.0168-6.02327.0879a10.72294,10.72294,0,0,0-3.5462.67905A7.47013,7.47013,0,0,0,16.158,20.43053a10.72294,10.72294,0,0,0-.67905,3.5462c-.0711,1.5582-.0879,2.05569-.0879,6.02327s.0168,4.46507.0879,6.02327a10.72294,10.72294,0,0,0,.67905,3.5462,7.47021,7.47021,0,0,0,4.27258,4.27258,10.72294,10.72294,0,0,0,3.5462.679c1.5582.07111,2.0557.0879,6.02327.0879s4.46507-.01679,6.02327-.0879a10.72294,10.72294,0,0,0,3.5462-.679,7.47028,7.47028,0,0,0,4.27258-4.27258,10.72294,10.72294,0,0,0,.679-3.5462c.0711-1.5582.0879-2.0557.0879-6.02327s-.0168-4.46507-.0879-6.02327a10.72294,10.72294,0,0,0-.679-3.5462A7.47021,7.47021,0,0,0,39.56947,16.158a10.72294,10.72294,0,0,0-3.5462-.67905c-1.5582-.0711-2.0557-.0879-6.02327-.0879Z"/><path d="M30,22.49808A7.50192,7.50192,0,1,0,37.50192,30,7.50192,7.50192,0,0,0,30,22.49808Zm0,12.37158A4.86967,4.86967,0,1,1,34.86967,30,4.86967,4.86967,0,0,1,30,34.86966Z"/><circle cx="37.79832" cy="22.20168" r="1.75308"/></svg>